<svg xmlns="http://www.w3.org/2000/svg" viewBox="0 0 960 420" font-family="none">
  <defs>
    <linearGradient id="p2-steel" x1="0" y1="0" x2="0" y2="1">
      <stop offset="0%" stop-color="#1b2129"/><stop offset="100%" stop-color="#0c0e11"/>
    </linearGradient>
    <radialGradient id="p2-riv" cx="35%" cy="30%" r="80%">
      <stop offset="0%" stop-color="#39414d"/><stop offset="100%" stop-color="#10141a"/>
    </radialGradient>
    <pattern id="p2-hazard" patternUnits="userSpaceOnUse" width="26" height="26" patternTransform="rotate(45)">
      <rect width="26" height="26" fill="#14181d"/>
      <rect width="13" height="26" fill="#f5c542"/>
    </pattern>
    <clipPath id="p2-plate"><rect x="40" y="40" width="880" height="340" rx="20"/></clipPath>
  </defs>
  <rect x="40" y="40" width="880" height="340" rx="20" fill="url(#p2-steel)" stroke="#262a31" stroke-width="1.5"/>
  <g clip-path="url(#p2-plate)">
    <rect x="40" y="40" width="880" height="30" fill="url(#p2-hazard)"/>
    <rect x="40" y="70" width="880" height="2" fill="#07090c"/>
  </g>
  <rect x="62" y="92" width="836" height="266" rx="12" fill="none" stroke="#1f232a" stroke-width="1.5"/>
  
    <circle cx="80" cy="110" r="7.5" fill="url(#p2-riv)" stroke="#0a0c10" stroke-width="1"/>
    <circle cx="77.8" cy="107.6" r="2" fill="#4a5462" opacity=".9"/>
    <circle cx="880" cy="110" r="7.5" fill="url(#p2-riv)" stroke="#0a0c10" stroke-width="1"/>
    <circle cx="877.8" cy="107.6" r="2" fill="#4a5462" opacity=".9"/>
    <circle cx="80" cy="340" r="7.5" fill="url(#p2-riv)" stroke="#0a0c10" stroke-width="1"/>
    <circle cx="77.8" cy="337.6" r="2" fill="#4a5462" opacity=".9"/>
    <circle cx="880" cy="340" r="7.5" fill="url(#p2-riv)" stroke="#0a0c10" stroke-width="1"/>
    <circle cx="877.8" cy="337.6" r="2" fill="#4a5462" opacity=".9"/>
  <g transform="translate(453.6,94) scale(2.2)" fill="none" stroke="#c2925a" stroke-width="1.9" stroke-linecap="round" stroke-linejoin="round">
    <path d="M7 3.5C3.5 6 3 11 5 15.5 6.2 18.3 9 20 12 20s5.8-1.7 7-4.5C21 11 20.5 6 17 3.5"/>
    <path d="M6.5 19.5l-.5 1.5M17.5 19.5l.5 1.5"/>
  </g>
  <path transform="translate(109.5,248)" fill="#e9edf4" d="M46.37 0L30.53 0L24.67-22.27L19.78-22.27L19.78 0L4.42 0L4.42-66.05L27.65-66.05Q34.85-66.05 38.59-63.65Q42.34-61.25 43.58-56.64Q44.83-52.03 44.83-44.16Q44.83-36.86 43.63-32.21Q42.43-27.55 38.78-25.15L46.37 0M23.81-35.04Q26.59-35.04 27.65-35.57Q28.70-36.10 29.09-37.87Q29.47-39.65 29.47-44.06Q29.47-48.48 29.14-50.21Q28.80-51.94 27.70-52.46Q26.59-52.99 23.81-52.99L19.78-52.99L19.78-35.04 M90.25 0L57.32 0L57.32-66.05L90.25-66.05L90.25-52.90L72.68-52.90L72.68-39.94L87.85-39.94L87.85-26.78L72.68-26.78L72.68-13.15L90.25-13.15 M144.50 0L130.86 0L118-32.54L117.62-32.54L117.62 0L102.93 0L102.93-66.05L117.71-66.05L129.33-36.96L129.90-36.96L129.90-66.05L144.50-66.05 M181.94 0L166.58 0L166.58-52.51L154.58-52.51L154.58-66.05L193.85-66.05L193.85-52.51L181.94-52.51 M244.74 0L229.28 0L227.26-12.29L214.02-12.29L212 0L196.83 0L209.60-66.05L231.97-66.05L244.74 0M225.15-25.06L220.93-52.03L220.26-52.03L216.03-25.06 M285.64 0L254.63 0L254.63-66.05L269.99-66.05L269.99-13.54L285.64-13.54"/>
  <path transform="translate(422.4,248)" fill="#ff7a1a" d="M63.94 0L43.01 0L37.34-43.10L36.67-43.10L31.10 0L10.08 0L1.34-66.05L16.80-66.05L21.22-16.13L21.98-16.13L28.42-66.05L46.18-66.05L52.80-16.13L53.57-16.13L57.60-66.05L72.77-66.05 M125.10 0L109.26 0L103.40-22.27L98.50-22.27L98.50 0L83.14 0L83.14-66.05L106.38-66.05Q113.58-66.05 117.32-63.65Q121.06-61.25 122.31-56.64Q123.56-52.03 123.56-44.16Q123.56-36.86 122.36-32.21Q121.16-27.55 117.51-25.15L125.10 0M102.54-35.04Q105.32-35.04 106.38-35.57Q107.43-36.10 107.82-37.87Q108.20-39.65 108.20-44.06Q108.20-48.48 107.86-50.21Q107.53-51.94 106.42-52.46Q105.32-52.99 102.54-52.99L98.50-52.99L98.50-35.04 M180.02 0L164.56 0L162.54-12.29L149.30-12.29L147.28 0L132.11 0L144.88-66.05L167.25-66.05L180.02 0M160.43-25.06L156.21-52.03L155.54-52.03L151.31-25.06 M231.38 0L217.75 0L204.89-32.54L204.50-32.54L204.50 0L189.82 0L189.82-66.05L204.60-66.05L216.22-36.96L216.79-36.96L216.79-66.05L231.38-66.05 M269.98-26.50L264.99-26.50L264.99-39.07L283.81-39.07L283.81-1.34Q280.35-0.38 275.31 0.19Q270.27 0.77 265.95 0.77Q256.64 0.77 252.08-2.02Q247.52-4.80 245.74-11.81Q243.97-18.82 243.97-33.02Q243.97-47.04 245.84-54.10Q247.71-61.15 252.51-63.98Q257.31-66.82 267.01-66.82Q271.14-66.82 275.94-66.24Q280.74-65.66 283.62-64.80L283.62-52.70Q280.54-53.09 276.94-53.38Q273.34-53.66 271.52-53.66Q265.18-53.66 262.98-52.70Q260.77-51.74 260-47.76Q259.23-43.78 259.23-33.02Q259.23-22.94 259.66-18.82Q260.10-14.69 261.54-13.30Q262.98-11.90 266.43-11.90Q268.06-11.90 269.98-12.10 M328.17 0L297.16 0L297.16-66.05L312.52-66.05L312.52-13.54L328.17-13.54 M371.76 0L338.83 0L338.83-66.05L371.76-66.05L371.76-52.90L354.19-52.90L354.19-39.94L369.36-39.94L369.36-26.78L354.19-26.78L354.19-13.15L371.76-13.15 M426.49 0L410.65 0L404.79-22.27L399.90-22.27L399.90 0L384.54 0L384.54-66.05L407.77-66.05Q414.97-66.05 418.71-63.65Q422.46-61.25 423.70-56.64Q424.95-52.03 424.95-44.16Q424.95-36.86 423.75-32.21Q422.55-27.55 418.90-25.15L426.49 0M403.93-35.04Q406.71-35.04 407.77-35.57Q408.82-36.10 409.21-37.87Q409.59-39.65 409.59-44.06Q409.59-48.48 409.26-50.21Q408.92-51.94 407.82-52.46Q406.71-52.99 403.93-52.99L399.90-52.99L399.90-35.04"/>
  <path transform="translate(171.1,302)" fill="#a7afbc" d="M9.72 0L7.33 0L7.33-6.15L3.63-6.15L3.63 0L1.24 0L1.24-14.45L3.63-14.45L3.63-8.40L7.33-8.40L7.33-14.45L9.72-14.45 M22.67 0L15.78 0L15.78-14.45L22.67-14.45L22.67-12.29L18.17-12.29L18.17-8.38L22.06-8.38L22.06-6.22L18.17-6.22L18.17-2.16L22.67-2.16 M37.19 0L34.73 0L34.04-3.28L30.34-3.28L29.67 0L27.26 0L30.49-14.45L33.95-14.45L37.19 0M33.58-5.42L32.25-12.08L32.13-12.08L30.78-5.42 M47.21 0L43.75 0L40.73-14.45L43.18-14.45L45.45-2.65L45.60-2.65L47.84-14.45L50.24-14.45 M60.03 0L57.64 0L57.64-5.12L54.13-14.45L56.59-14.45L58.82-8.04L58.98-8.04L61.17-14.45L63.54-14.45L60.03-5.12 M82.50 0L75.61 0L75.61-14.45L82.50-14.45L82.50-12.29L78.01-12.29L78.01-8.38L81.89-8.38L81.89-6.22L78.01-6.22L78.01-2.16L82.50-2.16 M94.67 2.42L93.37 0.11Q92.84 0.17 92.19 0.17Q90.07 0.17 89.17-0.45Q88.26-1.07 88.03-2.49Q87.80-3.91 87.80-7.22Q87.80-10.54 88.03-11.96Q88.26-13.38 89.17-14Q90.07-14.62 92.19-14.62Q94.31-14.62 95.21-14Q96.12-13.38 96.36-11.95Q96.60-10.52 96.60-7.22Q96.60-5.17 96.53-4Q96.45-2.83 96.20-2Q95.95-1.15 95.42-0.67L97.23 2.33L97.23 2.42L94.67 2.42M92.19-2Q93.22-2 93.60-2.26Q93.98-2.52 94.09-3.52Q94.21-4.52 94.21-7.22Q94.21-9.93 94.09-10.93Q93.98-11.93 93.60-12.19Q93.22-12.45 92.19-12.45Q91.16-12.45 90.79-12.19Q90.43-11.93 90.31-10.94Q90.20-9.95 90.20-7.22Q90.20-4.49 90.31-3.51Q90.43-2.52 90.79-2.26Q91.16-2 92.19-2 M108.29-14.45L110.68-14.45L110.68-6.36Q110.68-3.53 110.43-2.24Q110.18-0.95 109.31-0.39Q108.45 0.17 106.48 0.17Q104.51 0.17 103.64-0.39Q102.78-0.95 102.54-2.24Q102.30-3.53 102.30-6.36L102.30-14.45L104.69-14.45L104.69-5.46Q104.69-3.78 104.79-3.12Q104.88-2.46 105.24-2.23Q105.60-2 106.48-2Q107.38-2 107.74-2.23Q108.10-2.46 108.19-3.12Q108.29-3.78 108.29-5.46 M119.11 0L116.69 0L116.69-14.45L119.11-14.45 M125.21 0L125.21-14.45L129.74-14.45Q131.24-14.45 132-13.89Q132.77-13.34 133.03-12.33Q133.29-11.32 133.29-9.66Q133.29-8.06 133.04-7.05Q132.79-6.03 132-5.44Q131.21-4.85 129.70-4.85L127.60-4.85L127.60 0L125.21 0M127.60-7.01L129.14-7.01Q129.95-7.01 130.31-7.22Q130.67-7.43 130.77-7.96Q130.88-8.48 130.88-9.66Q130.88-10.82 130.77-11.34Q130.67-11.87 130.31-12.08Q129.95-12.29 129.16-12.29L127.60-12.29 M150.69 0L148.36 0L148.36-11.03L148.25-11.03L145.82 0L143.49 0L141.07-11.03L140.95-11.03L140.95 0L138.68 0L138.68-14.45L142.35-14.45L144.64-3.84L144.77-3.84L147.06-14.45L150.69-14.45 M163.66 0L156.77 0L156.77-14.45L163.66-14.45L163.66-12.29L159.16-12.29L159.16-8.38L163.05-8.38L163.05-6.22L159.16-6.22L159.16-2.16L163.66-2.16 M177.78 0L175.55 0L171.65-8.93L171.56-8.93L171.56 0L169.25 0L169.25-14.45L171.65-14.45L175.38-5.96L175.47-5.96L175.47-14.45L177.78-14.45 M188.16 0L185.77 0L185.77-12.22L182.87-12.22L182.87-14.45L191.04-14.45L191.04-12.22L188.16-12.22 M211.87 0L209.35 0L207.79-5.27L205.73-5.27L205.73 0L203.34 0L203.34-14.45L208-14.45Q209.51-14.45 210.28-13.92Q211.05-13.40 211.31-12.43Q211.57-11.47 211.57-9.87Q211.57-8.32 211.27-7.29Q210.96-6.26 210.04-5.78L211.87 0M207.44-7.43Q208.23-7.43 208.59-7.63Q208.95-7.83 209.06-8.33Q209.18-8.82 209.18-9.87Q209.18-10.92 209.06-11.40Q208.95-11.89 208.59-12.09Q208.23-12.29 207.44-12.29L205.73-12.29L205.73-7.43 M224.12 0L217.23 0L217.23-14.45L224.12-14.45L224.12-12.29L219.62-12.29L219.62-8.38L223.51-8.38L223.51-6.22L219.62-6.22L219.62-2.16L224.12-2.16 M238.24 0L236.01 0L232.11-8.93L232.02-8.93L232.02 0L229.71 0L229.71-14.45L232.11-14.45L235.85-5.96L235.93-5.96L235.93-14.45L238.24-14.45 M248.62 0L246.23 0L246.23-12.22L243.33-12.22L243.33-14.45L251.50-14.45L251.50-12.22L248.62-12.22 M264.89 0L262.43 0L261.74-3.28L258.04-3.28L257.37 0L254.95 0L258.19-14.45L261.65-14.45L264.89 0M261.27-5.42L259.95-12.08L259.82-12.08L258.48-5.42 M276.34 0L269.96 0L269.96-14.45L272.35-14.45L272.35-2.23L276.34-2.23"/><rect x="462.3" y="292.6" width="4.8" height="4.8" fill="#6b7480" transform="rotate(45 464.7 295)"/><path transform="translate(481.7,302)" fill="#a7afbc" d="M4.64 0.17Q3.78 0.17 2.75 0.08Q1.72 0 0.97-0.15L0.97-2.18Q2.75-2 3.97-2Q5.44-2 5.84-2.46Q6.05-2.67 6.11-3.03Q6.17-3.40 6.17-4.03Q6.17-4.91 6.07-5.29Q5.96-5.67 5.66-5.85Q5.36-6.03 4.60-6.15L2.52-6.51Q1.47-6.68 1.08-7.62Q0.69-8.57 0.69-10.35Q0.69-12.03 1.18-12.97Q1.66-13.90 2.54-14.26Q3.42-14.62 4.79-14.62Q5.67-14.62 6.58-14.50Q7.50-14.39 8.04-14.24L8.04-12.24Q6.95-12.45 5.48-12.45Q4.64-12.45 4.18-12.37Q3.72-12.29 3.49-12.08Q3.23-11.87 3.16-11.51Q3.09-11.15 3.09-10.44Q3.09-9.68 3.17-9.36Q3.26-9.03 3.48-8.88Q3.70-8.74 4.22-8.65L6.17-8.32Q6.99-8.19 7.51-7.83Q8.02-7.48 8.29-6.64Q8.57-5.78 8.57-4.35Q8.57-2.48 8.13-1.50Q7.69-0.52 6.86-0.18Q6.03 0.17 4.64 0.17 M20.02-14.45L22.42-14.45L22.42-6.36Q22.42-3.53 22.16-2.24Q21.91-0.95 21.05-0.39Q20.19 0.17 18.22 0.17Q16.24 0.17 15.38-0.39Q14.52-0.95 14.28-2.24Q14.04-3.53 14.04-6.36L14.04-14.45L16.43-14.45L16.43-5.46Q16.43-3.78 16.53-3.12Q16.62-2.46 16.98-2.23Q17.33-2 18.22-2Q19.12-2 19.48-2.23Q19.83-2.46 19.93-3.12Q20.02-3.78 20.02-5.46 M34.79 0L28.41 0L28.41-14.45L30.80-14.45L30.80-2.23L34.79-2.23 M39.95 0L39.95-14.45L44.48-14.45Q45.98-14.45 46.74-13.89Q47.51-13.34 47.77-12.33Q48.03-11.32 48.03-9.66Q48.03-8.06 47.78-7.05Q47.53-6.03 46.74-5.44Q45.95-4.85 44.44-4.85L42.34-4.85L42.34 0L39.95 0M42.34-7.01L43.88-7.01Q44.69-7.01 45.05-7.22Q45.41-7.43 45.51-7.96Q45.62-8.48 45.62-9.66Q45.62-10.82 45.51-11.34Q45.41-11.87 45.05-12.08Q44.69-12.29 43.90-12.29L42.34-12.29 M61.90 0L59.51 0L59.51-6.15L55.81-6.15L55.81 0L53.42 0L53.42-14.45L55.81-14.45L55.81-8.40L59.51-8.40L59.51-14.45L61.90-14.45 M73.86-14.45L76.25-14.45L76.25-6.36Q76.25-3.53 76-2.24Q75.75-0.95 74.89-0.39Q74.03 0.17 72.05 0.17Q70.08 0.17 69.22-0.39Q68.36-0.95 68.12-2.24Q67.88-3.53 67.88-6.36L67.88-14.45L70.27-14.45L70.27-5.46Q70.27-3.78 70.36-3.12Q70.46-2.46 70.81-2.23Q71.17-2 72.05-2Q72.96-2 73.31-2.23Q73.67-2.46 73.77-3.12Q73.86-3.78 73.86-5.46 M90.77 0L88.25 0L86.70-5.27L84.64-5.27L84.64 0L82.25 0L82.25-14.45L86.91-14.45Q88.42-14.45 89.19-13.92Q89.95-13.40 90.22-12.43Q90.48-11.47 90.48-9.87Q90.48-8.32 90.18-7.29Q89.87-6.26 88.95-5.78L90.77 0M86.34-7.43Q87.14-7.43 87.50-7.63Q87.86-7.83 87.97-8.33Q88.09-8.82 88.09-9.87Q88.09-10.92 87.97-11.40Q87.86-11.89 87.50-12.09Q87.14-12.29 86.34-12.29L84.64-12.29L84.64-7.43 M95.80 1.85Q96.28 1.85 96.52 1.72Q96.75 1.60 96.83 1.28Q96.92 0.97 96.92 0.34L96.92 0L95.99 0L95.99-2.48L98.53-2.48L98.53-0.63Q98.53 0.90 98.35 1.63Q98.17 2.35 97.61 2.66Q97.04 2.96 95.80 2.96 M118.33 0L111.95 0L111.95-14.45L114.34-14.45L114.34-2.23L118.33-2.23 M132.41 0L129.95 0L129.26-3.28L125.56-3.28L124.89 0L122.48 0L125.71-14.45L129.18-14.45L132.41 0M128.80-5.42L127.48-12.08L127.35-12.08L126.01-5.42"/><rect x="629.0" y="292.6" width="4.8" height="4.8" fill="#6b7480" transform="rotate(45 631.4 295)"/><path transform="translate(648.4,302)" fill="#a7afbc" d="M13.25 0L10.92 0L10.92-11.03L10.82-11.03L8.38 0L6.05 0L3.63-11.03L3.51-11.03L3.51 0L1.24 0L1.24-14.45L4.91-14.45L7.20-3.84L7.33-3.84L9.62-14.45L13.25-14.45 M23.42 0.17Q21.30 0.17 20.40-0.45Q19.50-1.07 19.27-2.49Q19.04-3.91 19.04-7.22Q19.04-10.54 19.27-11.96Q19.50-13.38 20.40-14Q21.30-14.62 23.42-14.62Q25.55-14.62 26.45-14Q27.35-13.38 27.59-11.95Q27.83-10.52 27.83-7.22Q27.83-3.93 27.59-2.50Q27.35-1.07 26.45-0.45Q25.55 0.17 23.42 0.17M23.42-2Q24.45-2 24.83-2.26Q25.21-2.52 25.32-3.52Q25.44-4.52 25.44-7.22Q25.44-9.93 25.32-10.93Q25.21-11.93 24.83-12.19Q24.45-12.45 23.42-12.45Q22.39-12.45 22.03-12.19Q21.66-11.93 21.54-10.94Q21.43-9.95 21.43-7.22Q21.43-4.49 21.54-3.51Q21.66-2.52 22.03-2.26Q22.39-2 23.42-2 M33.62 0L33.62-14.45L37.34-14.45Q39.52-14.45 40.43-13.85Q41.35-13.25 41.59-11.87Q41.83-10.48 41.83-7.22Q41.83-3.97 41.59-2.58Q41.35-1.20 40.43-0.60Q39.52 0 37.34 0L33.62 0M36.01-2.16L37.27-2.16Q38.38-2.16 38.78-2.41Q39.18-2.67 39.31-3.62Q39.43-4.58 39.43-7.22Q39.43-9.85 39.31-10.82Q39.18-11.78 38.78-12.03Q38.38-12.29 37.27-12.29L36.01-12.29 M54.50 0L47.61 0L47.61-14.45L54.50-14.45L54.50-12.29L50.01-12.29L50.01-8.38L53.89-8.38L53.89-6.22L50.01-6.22L50.01-2.16L54.50-2.16 M66.48 0L60.10 0L60.10-14.45L62.49-14.45L62.49-2.23L66.48-2.23 M87.67 0L85.15 0L83.59-5.27L81.53-5.27L81.53 0L79.14 0L79.14-14.45L83.80-14.45Q85.31-14.45 86.08-13.92Q86.85-13.40 87.11-12.43Q87.37-11.47 87.37-9.87Q87.37-8.32 87.07-7.29Q86.76-6.26 85.84-5.78L87.67 0M83.23-7.43Q84.03-7.43 84.39-7.63Q84.75-7.83 84.86-8.33Q84.98-8.82 84.98-9.87Q84.98-10.92 84.86-11.40Q84.75-11.89 84.39-12.09Q84.03-12.29 83.23-12.29L81.53-12.29L81.53-7.43 M104.47 0L101.20 0L99.48-10.69L99.35-10.69L97.63 0L94.35 0L92.06-14.45L94.52-14.45L96.03-2.79L96.18-2.79L98.03-14.45L100.91-14.45L102.77-2.79L102.90-2.79L104.39-14.45L106.76-14.45 M115.99-4.94L111.81-4.94L111.81-7.04L115.99-7.04 M125.68 0.17Q123.71 0.17 122.87-0.45Q122.03-1.07 121.81-2.49Q121.59-3.91 121.59-7.22Q121.59-10.54 121.81-11.96Q122.03-13.38 122.87-14Q123.71-14.62 125.68-14.62Q127.66-14.62 128.50-14Q129.34-13.38 129.55-11.96Q129.76-10.54 129.76-7.22Q129.76-3.91 129.55-2.49Q129.34-1.07 128.50-0.45Q127.66 0.17 125.68 0.17M125.68-2Q126.56-2 126.88-2.26Q127.19-2.52 127.29-3.51Q127.38-4.49 127.38-7.22Q127.38-9.95 127.29-10.94Q127.19-11.93 126.88-12.19Q126.56-12.45 125.68-12.45Q124.80-12.45 124.48-12.19Q124.17-11.93 124.08-10.94Q123.98-9.95 123.98-7.22Q123.98-4.49 124.08-3.51Q124.17-2.52 124.48-2.26Q124.80-2 125.68-2 M139.24 0L136.84 0L136.84-11.57L134.74-10.65L134.74-12.96L137.47-14.45L139.24-14.45"/>
</svg>