<svg xmlns="http://www.w3.org/2000/svg" viewBox="0 0 800 660" font-family="none">
  <defs>
    <radialGradient id="b1-ember" cx="50%" cy="46%" r="55%">
      <stop offset="0%" stop-color="#8a5a2b" stop-opacity=".26"/>
      <stop offset="100%" stop-color="#8a5a2b" stop-opacity="0"/>
    </radialGradient>
  </defs>
  <circle cx="400" cy="236" r="186" fill="url(#b1-ember)"/>
  <g stroke="#c2925a" stroke-width="9" fill="none" stroke-linecap="round">
    <path d="M 550.0 236 A 150 150 0 1 1 250.0 236 A 150 150 0 1 1 550.0 236"/>
    <path d="M 513.2 293.5 C 553.2072144234639 327.4878896349807, 529.2072144234639 373.4878896349807, 561.2072144234639 401.4878896349807 S 601.2072144234639 423.4878896349807, 589.2072144234639 439.4878896349807"/>
  </g>
  <g stroke="#8a5a2b" stroke-width="2.1" stroke-linecap="round" opacity=".85"><line x1="555.3" y1="231.9" x2="544.6" y2="239.8"/><line x1="554.5" y1="252.2" x2="542.8" y2="258.6"/><line x1="551.1" y1="272.3" x2="538.6" y2="277.1"/><line x1="545.1" y1="291.7" x2="532.1" y2="294.8"/><line x1="536.6" y1="310.2" x2="523.3" y2="311.6"/><line x1="525.7" y1="327.3" x2="512.4" y2="327.0"/><line x1="512.7" y1="343.0" x2="499.5" y2="340.9"/><line x1="497.8" y1="356.8" x2="485.0" y2="353.0"/><line x1="481.2" y1="368.5" x2="469.0" y2="363.1"/><line x1="463.2" y1="378.0" x2="451.8" y2="371.0"/><line x1="444.1" y1="385.0" x2="433.8" y2="376.6"/><line x1="424.3" y1="389.5" x2="415.1" y2="379.8"/><line x1="404.1" y1="391.3" x2="396.2" y2="380.6"/><line x1="383.8" y1="390.5" x2="377.4" y2="378.8"/><line x1="363.7" y1="387.1" x2="358.9" y2="374.6"/><line x1="344.3" y1="381.1" x2="341.2" y2="368.1"/><line x1="325.8" y1="372.6" x2="324.4" y2="359.3"/><line x1="308.7" y1="361.7" x2="309.0" y2="348.4"/><line x1="293.0" y1="348.7" x2="295.1" y2="335.5"/><line x1="279.2" y1="333.8" x2="283.0" y2="321.0"/><line x1="267.5" y1="317.2" x2="272.9" y2="305.0"/><line x1="258.0" y1="299.2" x2="265.0" y2="287.8"/><line x1="251.0" y1="280.1" x2="259.4" y2="269.8"/><line x1="246.5" y1="260.3" x2="256.2" y2="251.1"/><line x1="244.7" y1="240.1" x2="255.4" y2="232.2"/><line x1="245.5" y1="219.8" x2="257.2" y2="213.4"/><line x1="248.9" y1="199.7" x2="261.4" y2="194.9"/><line x1="254.9" y1="180.3" x2="267.9" y2="177.2"/><line x1="263.4" y1="161.8" x2="276.7" y2="160.4"/><line x1="274.3" y1="144.7" x2="287.6" y2="145.0"/><line x1="287.3" y1="129.0" x2="300.5" y2="131.1"/><line x1="302.2" y1="115.2" x2="315.0" y2="119.0"/><line x1="318.8" y1="103.5" x2="331.0" y2="108.9"/><line x1="336.8" y1="94.0" x2="348.2" y2="101.0"/><line x1="355.9" y1="87.0" x2="366.2" y2="95.4"/><line x1="375.7" y1="82.5" x2="384.9" y2="92.2"/><line x1="395.9" y1="80.7" x2="403.8" y2="91.4"/><line x1="416.2" y1="81.5" x2="422.6" y2="93.2"/><line x1="436.3" y1="84.9" x2="441.1" y2="97.4"/><line x1="455.7" y1="90.9" x2="458.8" y2="103.9"/><line x1="474.2" y1="99.4" x2="475.6" y2="112.7"/><line x1="491.3" y1="110.3" x2="491.0" y2="123.6"/><line x1="507.0" y1="123.3" x2="504.9" y2="136.5"/><line x1="520.8" y1="138.2" x2="517.0" y2="151.0"/><line x1="532.5" y1="154.8" x2="527.1" y2="167.0"/><line x1="542.0" y1="172.8" x2="535.0" y2="184.2"/><line x1="549.0" y1="191.9" x2="540.6" y2="202.2"/><line x1="553.5" y1="211.7" x2="543.8" y2="220.9"/></g>
  <g stroke="#c2925a" stroke-width="4.5" stroke-linecap="round"><circle cx="587.2072144234639" cy="449.4878896349807" r="11.5" fill="none"/>
    <circle cx="587.2072144234639" cy="449.4878896349807" r="5.5" fill="none"/></g>
  <path transform="translate(296.99,296.00)" fill="#c2925a" d="M81.14 0L53.42 0L43.18-38.98L34.61-38.98L34.61 0L7.73 0L7.73-115.58L48.38-115.58Q60.98-115.58 67.54-111.38Q74.09-107.18 76.27-99.12Q78.46-91.06 78.46-77.28Q78.46-64.51 76.36-56.36Q74.26-48.22 67.87-44.02L81.14 0M41.66-61.32Q46.54-61.32 48.38-62.24Q50.23-63.17 50.90-66.28Q51.58-69.38 51.58-77.11Q51.58-84.84 50.99-87.86Q50.40-90.89 48.47-91.81Q46.54-92.74 41.66-92.74L34.61-92.74L34.61-61.32 M188.88 0L152.26 0L142.34-75.43L141.17-75.43L131.42 0L94.63 0L79.34-115.58L106.39-115.58L114.12-28.22L115.46-28.22L126.72-115.58L157.80-115.58L169.39-28.22L170.74-28.22L177.79-115.58L204.34-115.58"/>
  <path transform="translate(59.81,512.00)" fill="#e9edf4" d="M42.57-7.75L42.57 0L31.28 0L22.51-16.86L16.52-16.86L16.52-7.75L21.28-7.75L21.28 0L2.65 0L2.65-7.75L7.41-7.75L7.41-36.45L2.65-36.45L2.65-44.20L22.64-44.20Q30.87-44.20 35.29-40.83Q39.71-37.47 39.71-30.80Q39.71-26.32 37.40-23.29Q35.09-20.26 31.28-18.77L37.26-7.75L42.57-7.75M29.92-30.60Q29.92-33.93 27.95-35.19Q25.98-36.45 21.01-36.45L16.52-36.45L16.52-24.07L20.88-24.07Q26.11-24.07 28.02-25.77Q29.92-27.47 29.92-30.60 M84.03-12.92L82.67 0L48.54 0L48.54-7.75L53.30-7.75L53.30-36.45L48.54-36.45L48.54-44.20L82.26-44.20L83.62-31.28L75.87-30.60L74.51-36.45L62.41-36.45L62.41-26.04L81.04-26.04L81.04-18.36L62.41-18.36L62.41-7.75L74.92-7.75L76.28-13.60 M138.55-44.20L138.55-36.45L133.79-36.45L133.79 0L128.69 0.07L104.96-28.02L104.69-28.02L104.69-7.75L110.81-7.75L110.81 0L91.43 0L91.43-7.75L96.19-7.75L96.19-36.45L90.68-36.45L90.68-44.20L102.72-44.20L125.02-17.95L125.29-17.95L125.29-36.45L118.90-36.45L118.90-44.20 M184.30-44.20L185.66-29.24L177.91-28.56L176.55-36.45L169.54-36.45L169.54-7.75L176.75-7.75L176.75 0L153.63 0L153.63-7.75L160.43-7.75L160.43-36.45L153.43-36.45L152.07-28.56L144.32-29.24L145.68-44.20 M232.22-7.75L232.22 0L214.61 0L214.61-7.75L218.15-7.75L216.52-12.24L201.49-12.24L199.65-7.75L203.80-7.75L203.80 0L186.39 0L186.39-7.75L190.40-7.75L203.05-36.45L196.93-36.45L196.93-44.20L212.10-44.20L228.01-7.75L232.22-7.75M204.07-18.77L214.07-18.77L209.44-31.21L209.04-31.21 M271.92-15.64L270.56 0L237.38 0L237.38-7.75L242.14-7.75L242.14-36.45L237.38-36.45L237.38-44.20L257.44-44.20L257.44-36.45L251.25-36.45L251.25-7.75L262.81-7.75L264.17-16.32 M353.01-44.20L353.01-36.45L349.48-36.45L337.30 0L330.84 0L320.44-28.56L320.10-28.56L310.17 0L303.58 0L290.66-36.45L286.85-36.45L286.85-44.20L304.46-44.20L304.46-36.45L300.38-36.45L306.98-15.10L307.38-15.10L315.27-36.45L311.80-36.45L311.80-44.20L329.42-44.20L329.42-36.45L326.29-36.45L334.11-14.69L334.52-14.69L340.36-36.45L335.60-36.45L335.60-44.20 M398.90-7.75L398.90 0L387.61 0L378.84-16.86L372.85-16.86L372.85-7.75L377.61-7.75L377.61 0L358.98 0L358.98-7.75L363.74-7.75L363.74-36.45L358.98-36.45L358.98-44.20L378.97-44.20Q387.20-44.20 391.62-40.83Q396.04-37.47 396.04-30.80Q396.04-26.32 393.73-23.29Q391.42-20.26 387.61-18.77L393.59-7.75L398.90-7.75M386.25-30.60Q386.25-33.93 384.28-35.19Q382.30-36.45 377.34-36.45L372.85-36.45L372.85-24.07L377.20-24.07Q382.44-24.07 384.34-25.77Q386.25-27.47 386.25-30.60 M448.93-7.75L448.93 0L431.32 0L431.32-7.75L434.85-7.75L433.22-12.24L418.19-12.24L416.36-7.75L420.50-7.75L420.50 0L403.10 0L403.10-7.75L407.11-7.75L419.76-36.45L413.64-36.45L413.64-44.20L428.80-44.20L444.71-7.75L448.93-7.75M420.78-18.77L430.77-18.77L426.15-31.21L425.74-31.21 M501.27-44.20L501.27-36.45L496.51-36.45L496.51 0L491.41 0.07L467.68-28.02L467.41-28.02L467.41-7.75L473.53-7.75L473.53 0L454.15 0L454.15-7.75L458.91-7.75L458.91-36.45L453.40-36.45L453.40-44.20L465.44-44.20L487.74-17.95L488.01-17.95L488.01-36.45L481.62-36.45L481.62-44.20 M549.60-24.41L549.60-16.73L547.43-16.73L547.43 0L540.36 0L539.47-4.62Q537.43-2.24 534.27-0.78Q531.11 0.68 526.82 0.68Q517.51 0.68 512.03-5.78Q506.56-12.24 506.56-21.76Q506.56-31.28 512.34-38.08Q518.12-44.88 529.34-44.88Q534.71-44.88 539.10-43.32Q543.48-41.75 545.66-39.58L546.88-29.99L539.54-29.31L538.32-34.48Q536.55-35.63 533.86-36.24Q531.18-36.86 528.93-36.86Q523.49-36.86 519.92-33.18Q516.35-29.51 516.35-21.90Q516.35-14.55 519.72-10.95Q523.08-7.34 528.46-7.34Q532.94-7.34 535.60-9.72Q538.25-12.10 538.25-16.46L538.25-16.73L529.61-16.73L529.61-24.41 M590.93-15.64L589.57 0L556.39 0L556.39-7.75L561.15-7.75L561.15-36.45L556.39-36.45L556.39-44.20L576.45-44.20L576.45-36.45L570.26-36.45L570.26-7.75L581.82-7.75L583.18-16.32 M632.33-12.92L630.97 0L596.83 0L596.83-7.75L601.59-7.75L601.59-36.45L596.83-36.45L596.83-44.20L630.56-44.20L631.92-31.28L624.17-30.60L622.81-36.45L610.70-36.45L610.70-26.04L629.34-26.04L629.34-18.36L610.70-18.36L610.70-7.75L623.22-7.75L624.58-13.60 M679.57-7.75L679.57 0L668.28 0L659.51-16.86L653.53-16.86L653.53-7.75L658.29-7.75L658.29 0L639.66 0L639.66-7.75L644.42-7.75L644.42-36.45L639.66-36.45L639.66-44.20L659.65-44.20Q667.88-44.20 672.30-40.83Q676.72-37.47 676.72-30.80Q676.72-26.32 674.40-23.29Q672.09-20.26 668.28-18.77L674.27-7.75L679.57-7.75M666.92-30.60Q666.92-33.93 664.95-35.19Q662.98-36.45 658.02-36.45L653.53-36.45L653.53-24.07L657.88-24.07Q663.12-24.07 665.02-25.77Q666.92-27.47 666.92-30.60"/>
  <line x1="230" y1="545" x2="570" y2="545" stroke="#c2925a" stroke-width="2" stroke-dasharray="9 7" stroke-linecap="round"/>
  <g>
    <path transform="translate(144.4,584)" fill="#a7afbc" d="M9.72 0L7.33 0L7.33-6.15L3.63-6.15L3.63 0L1.24 0L1.24-14.45L3.63-14.45L3.63-8.40L7.33-8.40L7.33-14.45L9.72-14.45 M22.27 0L15.38 0L15.38-14.45L22.27-14.45L22.27-12.29L17.77-12.29L17.77-8.38L21.66-8.38L21.66-6.22L17.77-6.22L17.77-2.16L22.27-2.16 M36.39 0L33.93 0L33.24-3.28L29.54-3.28L28.87 0L26.46 0L29.69-14.45L33.15-14.45L36.39 0M32.78-5.42L31.45-12.08L31.33-12.08L29.98-5.42 M46.01 0L42.55 0L39.53-14.45L41.98-14.45L44.25-2.65L44.40-2.65L46.64-14.45L49.04-14.45 M58.43 0L56.04 0L56.04-5.12L52.53-14.45L54.99-14.45L57.22-8.04L57.38-8.04L59.57-14.45L61.94-14.45L58.43-5.12 M80.10 0L73.21 0L73.21-14.45L80.10-14.45L80.10-12.29L75.61-12.29L75.61-8.38L79.49-8.38L79.49-6.22L75.61-6.22L75.61-2.16L80.10-2.16 M91.87 2.42L90.57 0.11Q90.04 0.17 89.39 0.17Q87.27 0.17 86.37-0.45Q85.46-1.07 85.23-2.49Q85-3.91 85-7.22Q85-10.54 85.23-11.96Q85.46-13.38 86.37-14Q87.27-14.62 89.39-14.62Q91.51-14.62 92.41-14Q93.32-13.38 93.56-11.95Q93.80-10.52 93.80-7.22Q93.80-5.17 93.73-4Q93.65-2.83 93.40-2Q93.15-1.15 92.62-0.67L94.43 2.33L94.43 2.42L91.87 2.42M89.39-2Q90.42-2 90.80-2.26Q91.18-2.52 91.29-3.52Q91.41-4.52 91.41-7.22Q91.41-9.93 91.29-10.93Q91.18-11.93 90.80-12.19Q90.42-12.45 89.39-12.45Q88.36-12.45 87.99-12.19Q87.63-11.93 87.51-10.94Q87.40-9.95 87.40-7.22Q87.40-4.49 87.51-3.51Q87.63-2.52 87.99-2.26Q88.36-2 89.39-2 M105.09-14.45L107.48-14.45L107.48-6.36Q107.48-3.53 107.23-2.24Q106.98-0.95 106.11-0.39Q105.25 0.17 103.28 0.17Q101.31 0.17 100.44-0.39Q99.58-0.95 99.34-2.24Q99.10-3.53 99.10-6.36L99.10-14.45L101.49-14.45L101.49-5.46Q101.49-3.78 101.59-3.12Q101.68-2.46 102.04-2.23Q102.40-2 103.28-2Q104.18-2 104.54-2.23Q104.90-2.46 104.99-3.12Q105.09-3.78 105.09-5.46 M115.51 0L113.09 0L113.09-14.45L115.51-14.45 M121.21 0L121.21-14.45L125.74-14.45Q127.24-14.45 128-13.89Q128.77-13.34 129.03-12.33Q129.29-11.32 129.29-9.66Q129.29-8.06 129.04-7.05Q128.79-6.03 128-5.44Q127.21-4.85 125.70-4.85L123.60-4.85L123.60 0L121.21 0M123.60-7.01L125.14-7.01Q125.95-7.01 126.31-7.22Q126.67-7.43 126.77-7.96Q126.88-8.48 126.88-9.66Q126.88-10.82 126.77-11.34Q126.67-11.87 126.31-12.08Q125.95-12.29 125.16-12.29L123.60-12.29 M146.29 0L143.96 0L143.96-11.03L143.85-11.03L141.42 0L139.09 0L136.67-11.03L136.55-11.03L136.55 0L134.28 0L134.28-14.45L137.95-14.45L140.24-3.84L140.37-3.84L142.66-14.45L146.29-14.45 M158.86 0L151.97 0L151.97-14.45L158.86-14.45L158.86-12.29L154.36-12.29L154.36-8.38L158.25-8.38L158.25-6.22L154.36-6.22L154.36-2.16L158.86-2.16 M172.58 0L170.35 0L166.45-8.93L166.36-8.93L166.36 0L164.05 0L164.05-14.45L166.45-14.45L170.18-5.96L170.27-5.96L170.27-14.45L172.58-14.45 M182.56 0L180.17 0L180.17-12.22L177.27-12.22L177.27-14.45L185.44-14.45L185.44-12.22L182.56-12.22 M205.47 0L202.95 0L201.39-5.27L199.33-5.27L199.33 0L196.94 0L196.94-14.45L201.60-14.45Q203.11-14.45 203.88-13.92Q204.65-13.40 204.91-12.43Q205.17-11.47 205.17-9.87Q205.17-8.32 204.87-7.29Q204.56-6.26 203.64-5.78L205.47 0M201.04-7.43Q201.83-7.43 202.19-7.63Q202.55-7.83 202.66-8.33Q202.78-8.82 202.78-9.87Q202.78-10.92 202.66-11.40Q202.55-11.89 202.19-12.09Q201.83-12.29 201.04-12.29L199.33-12.29L199.33-7.43 M217.32 0L210.43 0L210.43-14.45L217.32-14.45L217.32-12.29L212.82-12.29L212.82-8.38L216.71-8.38L216.71-6.22L212.82-6.22L212.82-2.16L217.32-2.16 M231.04 0L228.81 0L224.91-8.93L224.82-8.93L224.82 0L222.51 0L222.51-14.45L224.91-14.45L228.65-5.96L228.73-5.96L228.73-14.45L231.04-14.45 M241.02 0L238.63 0L238.63-12.22L235.73-12.22L235.73-14.45L243.90-14.45L243.90-12.22L241.02-12.22 M256.89 0L254.43 0L253.74-3.28L250.04-3.28L249.37 0L246.95 0L250.19-14.45L253.65-14.45L256.89 0M253.27-5.42L251.95-12.08L251.82-12.08L250.48-5.42 M267.94 0L261.56 0L261.56-14.45L263.95-14.45L263.95-2.23L267.94-2.23"/>
    <polygon fill="#c2925a" points="427.64,569.00 429.62,574.28 435.25,574.53 430.84,578.04 432.34,583.47 427.64,580.36 422.94,583.47 424.45,578.04 420.03,574.53 425.67,574.28"/>
    <path transform="translate(442.6,584)" fill="#a7afbc" d="M4.64 0.17Q3.78 0.17 2.75 0.08Q1.72 0 0.97-0.15L0.97-2.18Q2.75-2 3.97-2Q5.44-2 5.84-2.46Q6.05-2.67 6.11-3.03Q6.17-3.40 6.17-4.03Q6.17-4.91 6.07-5.29Q5.96-5.67 5.66-5.85Q5.36-6.03 4.60-6.15L2.52-6.51Q1.47-6.68 1.08-7.62Q0.69-8.57 0.69-10.35Q0.69-12.03 1.18-12.97Q1.66-13.90 2.54-14.26Q3.42-14.62 4.79-14.62Q5.67-14.62 6.58-14.50Q7.50-14.39 8.04-14.24L8.04-12.24Q6.95-12.45 5.48-12.45Q4.64-12.45 4.18-12.37Q3.72-12.29 3.49-12.08Q3.23-11.87 3.16-11.51Q3.09-11.15 3.09-10.44Q3.09-9.68 3.17-9.36Q3.26-9.03 3.48-8.88Q3.70-8.74 4.22-8.65L6.17-8.32Q6.99-8.19 7.51-7.83Q8.02-7.48 8.29-6.64Q8.57-5.78 8.57-4.35Q8.57-2.48 8.13-1.50Q7.69-0.52 6.86-0.18Q6.03 0.17 4.64 0.17 M19.62-14.45L22.02-14.45L22.02-6.36Q22.02-3.53 21.76-2.24Q21.51-0.95 20.65-0.39Q19.79 0.17 17.82 0.17Q15.84 0.17 14.98-0.39Q14.12-0.95 13.88-2.24Q13.64-3.53 13.64-6.36L13.64-14.45L16.03-14.45L16.03-5.46Q16.03-3.78 16.13-3.12Q16.22-2.46 16.58-2.23Q16.93-2 17.82-2Q18.72-2 19.08-2.23Q19.43-2.46 19.53-3.12Q19.62-3.78 19.62-5.46 M33.99 0L27.61 0L27.61-14.45L30-14.45L30-2.23L33.99-2.23 M38.75 0L38.75-14.45L43.28-14.45Q44.77-14.45 45.54-13.89Q46.31-13.34 46.57-12.33Q46.83-11.32 46.83-9.66Q46.83-8.06 46.58-7.05Q46.33-6.03 45.54-5.44Q44.75-4.85 43.24-4.85L41.14-4.85L41.14 0L38.75 0M41.14-7.01L42.67-7.01Q43.49-7.01 43.85-7.22Q44.21-7.43 44.31-7.96Q44.42-8.48 44.42-9.66Q44.42-10.82 44.31-11.34Q44.21-11.87 43.85-12.08Q43.49-12.29 42.70-12.29L41.14-12.29 M60.30 0L57.91 0L57.91-6.15L54.21-6.15L54.21 0L51.82 0L51.82-14.45L54.21-14.45L54.21-8.40L57.91-8.40L57.91-14.45L60.30-14.45 M71.86-14.45L74.25-14.45L74.25-6.36Q74.25-3.53 74-2.24Q73.75-0.95 72.89-0.39Q72.03 0.17 70.05 0.17Q68.08 0.17 67.22-0.39Q66.36-0.95 66.12-2.24Q65.88-3.53 65.88-6.36L65.88-14.45L68.27-14.45L68.27-5.46Q68.27-3.78 68.36-3.12Q68.46-2.46 68.81-2.23Q69.17-2 70.05-2Q70.96-2 71.31-2.23Q71.67-2.46 71.77-3.12Q71.86-3.78 71.86-5.46 M88.37 0L85.85 0L84.30-5.27L82.24-5.27L82.24 0L79.85 0L79.85-14.45L84.51-14.45Q86.02-14.45 86.79-13.92Q87.55-13.40 87.82-12.43Q88.08-11.47 88.08-9.87Q88.08-8.32 87.78-7.29Q87.47-6.26 86.55-5.78L88.37 0M83.94-7.43Q84.74-7.43 85.10-7.63Q85.45-7.83 85.57-8.33Q85.69-8.82 85.69-9.87Q85.69-10.92 85.57-11.40Q85.45-11.89 85.10-12.09Q84.74-12.29 83.94-12.29L82.24-12.29L82.24-7.43 M93 1.85Q93.48 1.85 93.72 1.72Q93.95 1.60 94.03 1.28Q94.11 0.97 94.11 0.34L94.11 0L93.19 0L93.19-2.48L95.73-2.48L95.73-0.63Q95.73 0.90 95.55 1.63Q95.37 2.35 94.81 2.66Q94.24 2.96 93 2.96 M114.73 0L108.35 0L108.35-14.45L110.74-14.45L110.74-2.23L114.73-2.23 M123.58 0.17Q121.46 0.17 120.56-0.45Q119.65-1.07 119.42-2.49Q119.19-3.91 119.19-7.22Q119.19-10.54 119.42-11.96Q119.65-13.38 120.56-14Q121.46-14.62 123.58-14.62Q125.70-14.62 126.60-14Q127.51-13.38 127.75-11.95Q127.99-10.52 127.99-7.22Q127.99-3.93 127.75-2.50Q127.51-1.07 126.60-0.45Q125.70 0.17 123.58 0.17M123.58-2Q124.61-2 124.99-2.26Q125.37-2.52 125.48-3.52Q125.60-4.52 125.60-7.22Q125.60-9.93 125.48-10.93Q125.37-11.93 124.99-12.19Q124.61-12.45 123.58-12.45Q122.55-12.45 122.18-12.19Q121.82-11.93 121.70-10.94Q121.59-9.95 121.59-7.22Q121.59-4.49 121.70-3.51Q121.82-2.52 122.18-2.26Q122.55-2 123.58-2 M139.28-14.45L141.67-14.45L141.67-6.36Q141.67-3.53 141.42-2.24Q141.17-0.95 140.31-0.39Q139.44 0.17 137.47 0.17Q135.50 0.17 134.63-0.39Q133.77-0.95 133.53-2.24Q133.29-3.53 133.29-6.36L133.29-14.45L135.69-14.45L135.69-5.46Q135.69-3.78 135.78-3.12Q135.87-2.46 136.23-2.23Q136.59-2 137.47-2Q138.37-2 138.73-2.23Q139.09-2.46 139.18-3.12Q139.28-3.78 139.28-5.46 M149.70 0L147.28 0L147.28-14.45L149.70-14.45 M158.80 0.17Q157.94 0.17 156.91 0.08Q155.88 0 155.13-0.15L155.13-2.18Q156.91-2 158.13-2Q159.60-2 160-2.46Q160.21-2.67 160.27-3.03Q160.33-3.40 160.33-4.03Q160.33-4.91 160.23-5.29Q160.12-5.67 159.82-5.85Q159.51-6.03 158.76-6.15L156.68-6.51Q155.63-6.68 155.24-7.62Q154.85-8.57 154.85-10.35Q154.85-12.03 155.34-12.97Q155.82-13.90 156.70-14.26Q157.58-14.62 158.95-14.62Q159.83-14.62 160.74-14.50Q161.66-14.39 162.20-14.24L162.20-12.24Q161.11-12.45 159.64-12.45Q158.80-12.45 158.34-12.37Q157.88-12.29 157.65-12.08Q157.39-11.87 157.32-11.51Q157.25-11.15 157.25-10.44Q157.25-9.68 157.33-9.36Q157.41-9.03 157.64-8.88Q157.86-8.74 158.38-8.65L160.33-8.32Q161.15-8.19 161.67-7.83Q162.18-7.48 162.45-6.64Q162.73-5.78 162.73-4.35Q162.73-2.48 162.29-1.50Q161.85-0.52 161.02-0.18Q160.19 0.17 158.80 0.17 M170.32 0L167.90 0L167.90-14.45L170.32-14.45 M184.94 0L182.48 0L181.79-3.28L178.09-3.28L177.42 0L175.01 0L178.24-14.45L181.71-14.45L184.94 0M181.33-5.42L180.01-12.08L179.88-12.08L178.54-5.42 M198.14 0L195.91 0L192-8.93L191.92-8.93L191.92 0L189.61 0L189.61-14.45L192-14.45L195.74-5.96L195.83-5.96L195.83-14.45L198.14-14.45 M212.74 0L210.28 0L209.59-3.28L205.89-3.28L205.22 0L202.81 0L206.04-14.45L209.51-14.45L212.74 0M209.13-5.42L207.81-12.08L207.68-12.08L206.33-5.42"/>
  </g>
</svg>